<?xml version="1.0" standalone="no"?>
<!DOCTYPE svg PUBLIC "-//W3C//DTD SVG 20010904//EN"
 "http://www.w3.org/TR/2001/REC-SVG-20010904/DTD/svg10.dtd">
<svg version="1.0" xmlns="http://www.w3.org/2000/svg"
 width="60.000000pt" height="60.000000pt" viewBox="0 0 60.000000 60.000000"
 preserveAspectRatio="xMidYMid meet">
<metadata>
Created by potrace 1.10, written by Peter Selinger 2001-2011
</metadata>
<g transform="translate(0.000000,60.000000) scale(0.100000,-0.100000)"
fill="#000000" stroke="none">
<path d="M244 565 c-7 -19 -14 -39 -14 -45 0 -19 -44 -10 -69 14 -15 13 -36
27 -48 30 -18 6 -22 2 -28 -22 -3 -16 -1 -41 4 -55 14 -36 5 -55 -27 -60 l-27
-4 26 -2 c34 -1 48 -48 21 -70 -15 -12 -14 -13 11 -7 17 4 36 1 51 -10 23 -14
24 -20 19 -83 -7 -83 10 -122 67 -151 47 -24 66 -25 103 -5 27 14 28 13 22 -6
-11 -33 3 -69 32 -80 58 -22 88 61 48 135 -14 26 -16 39 -8 47 8 8 13 6 17 -9
9 -27 36 -36 55 -17 13 12 13 20 3 49 -7 18 -10 40 -7 49 4 9 -4 23 -19 35
-15 11 -26 30 -26 43 0 15 -11 31 -30 44 -22 15 -28 25 -24 40 4 11 7 21 8 22
0 0 16 3 34 6 50 8 54 21 5 14 -41 -5 -63 5 -63 29 0 6 11 15 25 18 14 4 25
11 25 16 0 16 -15 12 -45 -12 l-28 -22 -18 25 c-70 94 -73 95 -95 44z m62 -40
c9 -19 21 -35 26 -35 5 0 6 -5 2 -12 -5 -8 -2 -9 9 -5 9 3 19 2 22 -3 4 -6 -2
-11 -12 -11 -17 -1 -17 -2 0 -6 21 -5 23 -36 3 -52 -11 -9 -17 -8 -28 8 -15
21 -15 21 -117 -15 -11 -3 -9 -10 8 -28 20 -21 21 -27 9 -45 -10 -17 -10 -23
1 -33 11 -11 13 -11 6 0 -7 13 20 52 37 52 5 0 6 -16 2 -35 -8 -43 3 -46 18
-4 9 27 12 29 20 15 7 -13 5 -21 -9 -31 -14 -11 -15 -16 -6 -26 20 -20 109 20
105 47 -6 32 -22 46 -39 33 -20 -17 -28 -3 -15 26 15 32 35 32 61 -1 22 -28
28 -88 10 -99 -5 -4 -9 -17 -8 -28 2 -12 -1 -32 -5 -44 -4 -14 -1 -34 9 -53
10 -19 14 -46 12 -71 -5 -46 -9 -52 -30 -43 -23 9 -30 38 -18 80 6 21 8 41 5
46 -8 13 -24 9 -24 -6 0 -20 -55 -39 -93 -32 -68 13 -92 70 -73 173 8 41 7 43
-23 60 -33 19 -36 38 -5 38 11 1 18 7 16 15 -6 27 -25 41 -47 36 -19 -5 -22
-2 -17 19 2 14 -1 32 -8 40 -7 8 -9 23 -5 37 8 22 8 22 24 2 34 -41 69 -61
100 -56 28 4 31 8 31 41 0 62 18 64 46 6z m-157 -126 c-17 -10 -31 -7 -36 8
-5 13 40 22 46 9 2 -4 -3 -12 -10 -17z m170 -13 c6 -7 9 -20 5 -29 -7 -18 -36
-16 -42 4 -3 11 -1 11 7 -1 9 -13 11 -13 11 3 0 21 -13 22 -30 2 -10 -12 -16
-13 -26 -4 -22 18 -16 27 19 32 17 2 35 5 38 5 4 1 12 -4 18 -12z m54 -80 c3
-8 -1 -17 -10 -20 -20 -8 -25 -3 -17 18 8 20 20 21 27 2z m94 -48 c-3 -11 -1
-31 5 -44 16 -33 0 -44 -21 -15 -17 22 -18 39 -5 79 6 21 26 2 21 -20z"/>
<path d="M280 485 c0 -9 5 -15 11 -13 6 2 11 8 11 13 0 5 -5 11 -11 13 -6 2
-11 -4 -11 -13z"/>
<path d="M176 463 c-11 -11 -6 -23 9 -23 8 0 15 4 15 9 0 13 -16 22 -24 14z"/>
<path d="M231 438 c-10 -17 -9 -18 16 -12 40 9 48 21 20 26 -16 3 -28 -1 -36
-14z"/>
<path d="M213 229 c2 -26 3 -27 15 -12 6 9 12 12 12 7 0 -6 -7 -19 -15 -30
-17 -23 -19 -34 -5 -34 6 0 18 16 27 35 13 27 14 38 5 47 -24 24 -41 18 -39
-13z"/>
<path d="M314 240 c-24 -9 -39 -28 -31 -36 3 -3 17 2 31 11 21 14 26 15 26 3
0 -8 -7 -23 -15 -34 -20 -27 -18 -37 5 -24 28 15 44 58 29 76 -13 16 -16 16
-45 4z"/>
</g>
</svg>
