<?xml version="1.0" standalone="no"?>
<!DOCTYPE svg PUBLIC "-//W3C//DTD SVG 20010904//EN"
 "http://www.w3.org/TR/2001/REC-SVG-20010904/DTD/svg10.dtd">
<svg version="1.0" xmlns="http://www.w3.org/2000/svg"
 width="60.000000pt" height="60.000000pt" viewBox="0 0 60.000000 60.000000"
 preserveAspectRatio="xMidYMid meet">
<metadata>
Created by potrace 1.10, written by Peter Selinger 2001-2011
</metadata>
<g transform="translate(0.000000,60.000000) scale(0.100000,-0.100000)"
fill="#000000" stroke="none">
<path d="M410 519 c0 -14 -13 -18 -77 -23 -134 -11 -178 -17 -191 -25 -9 -5 1
-30 38 -95 l50 -87 0 -101 0 -100 -67 7 c-38 4 -71 9 -74 11 -3 2 -9 39 -13
82 -6 73 -4 84 23 143 16 35 32 74 35 87 11 35 -10 26 -24 -10 -7 -18 -26 -64
-43 -103 -19 -45 -26 -70 -18 -73 6 -2 11 -25 11 -50 0 -81 5 -88 68 -101 30
-6 79 -11 108 -11 37 0 54 -4 58 -15 4 -12 25 -15 96 -15 53 0 90 4 90 10 0 6
-5 10 -12 10 -6 0 -8 3 -4 7 4 4 19 7 34 8 l27 0 -1 87 c-2 72 1 88 14 93 11
4 13 9 6 13 -17 11 -54 118 -54 155 0 18 -3 48 -6 69 -6 32 -10 37 -40 40 -27
3 -34 0 -34 -13z m65 -66 c4 -18 4 -33 1 -33 -7 0 -36 68 -36 83 0 22 28 -19
35 -50z m-25 -29 c35 -78 34 -75 15 -68 -8 4 -15 17 -15 30 0 14 -5 23 -12 22
-14 -3 -50 61 -42 74 12 19 25 4 54 -58z m-139 35 c13 -25 -2 -69 -25 -69 -16
0 -46 42 -46 64 0 30 55 34 71 5z m71 -4 c8 -17 8 -29 1 -36 -15 -15 -41 0
-52 32 -9 27 -8 29 15 29 16 0 28 -8 36 -25z m-157 -30 c0 -50 -19 -55 -40
-11 -10 20 -22 37 -29 37 -6 1 3 5 19 9 44 11 50 7 50 -35z m145 -47 c0 -13
-8 -18 -30 -18 -32 0 -36 9 -20 41 9 16 14 17 30 6 11 -6 20 -20 20 -29z m-85
-27 c-17 -29 -61 4 -50 38 6 19 7 18 31 -4 14 -13 23 -29 19 -34z m138 45 c20
-15 23 -46 4 -46 -19 0 -37 21 -37 42 0 21 9 22 33 4z m-165 -66 c16 0 15 -27
0 -33 -7 -2 -21 8 -30 22 -23 34 -23 48 0 28 10 -10 24 -17 30 -17z m146 11
c21 -24 13 -41 -19 -41 -27 0 -41 26 -24 46 15 19 23 18 43 -5z m-75 0 c12 -8
12 -12 2 -25 -18 -22 -41 -20 -41 2 0 31 14 39 39 23z m138 -7 c8 -21 -13 -42
-28 -27 -13 13 -5 43 11 43 6 0 13 -7 17 -16z m23 -24 c-13 -8 -12 -10 3 -10
9 0 17 -4 17 -10 0 -12 -27 -13 -34 -2 -3 5 -2 19 1 31 4 16 9 19 17 11 8 -8
7 -13 -4 -20z m-180 -36 c0 -8 -2 -14 -4 -14 -2 0 -11 -3 -19 -6 -15 -5 -31
21 -22 36 8 13 45 -1 45 -16z m64 11 c47 -20 46 -28 -4 -23 -22 2 -42 -1 -44
-7 -4 -8 -1 30 3 43 2 4 8 2 45 -13z m77 5 c5 0 9 -7 9 -15 0 -18 -5 -18 -31
-5 -23 13 -26 35 -3 26 9 -3 20 -6 25 -6z m-191 -41 c0 -9 35 -10 125 -7 l125
6 0 -79 0 -79 -34 0 c-38 0 -46 12 -46 69 0 20 -6 45 -13 56 -12 16 -13 11 -9
-39 l4 -56 -32 0 -32 0 4 55 c3 31 1 52 -3 48 -4 -4 -9 -28 -10 -53 -4 -71
-16 -90 -58 -90 l-36 0 0 90 c0 49 3 90 8 90 4 0 7 -5 7 -11z m170 -149 c0 -5
-24 -10 -52 -10 -38 0 -49 3 -38 10 20 13 90 13 90 0z m-29 -40 c-30 -5 -64
-4 -75 0 -14 6 4 9 54 8 l75 0 -54 -8z"/>
<path d="M267 201 c-6 -26 7 -44 29 -39 12 2 20 13 22 31 3 23 0 27 -21 27
-16 0 -26 -7 -30 -19z"/>
<path d="M451 188 c2 -31 2 -31 6 -5 4 28 33 39 33 12 0 -8 -4 -15 -10 -15 -5
0 -10 -4 -10 -10 0 -5 7 -10 15 -10 10 0 15 10 15 30 0 25 -4 30 -25 30 -22 0
-25 -4 -24 -32z"/>
<path d="M115 320 c-7 -23 10 -50 31 -50 19 0 27 18 20 46 -8 30 -42 32 -51 4z"/>
<path d="M107 213 c-4 -3 -7 -19 -7 -33 0 -24 6 -29 44 -39 25 -6 47 -11 50
-11 9 0 7 68 -1 73 -17 9 -80 17 -86 10z m81 -45 c3 -26 2 -27 -30 -17 -18 5
-34 9 -35 9 -2 0 -3 11 -3 24 0 21 3 23 33 17 25 -5 33 -12 35 -33z"/>
</g>
</svg>
