<?xml version="1.0" standalone="no"?>
<!DOCTYPE svg PUBLIC "-//W3C//DTD SVG 20010904//EN"
 "http://www.w3.org/TR/2001/REC-SVG-20010904/DTD/svg10.dtd">
<svg version="1.0" xmlns="http://www.w3.org/2000/svg"
 width="60.000000pt" height="60.000000pt" viewBox="0 0 60.000000 60.000000"
 preserveAspectRatio="xMidYMid meet">
<metadata>
Created by potrace 1.10, written by Peter Selinger 2001-2011
</metadata>
<g transform="translate(0.000000,60.000000) scale(0.100000,-0.100000)"
fill="#000000" stroke="none">
<path d="M16 498 c1 -24 5 -52 10 -62 6 -16 4 -18 -12 -13 -18 7 -18 6 -1 -7
9 -7 17 -21 17 -30 0 -9 5 -16 10 -16 6 0 8 10 4 24 -4 18 -1 25 15 29 28 7
26 25 -4 39 -27 12 -33 33 -12 41 10 4 10 6 0 6 -7 1 -13 8 -13 16 0 8 -3 15
-8 15 -4 0 -7 -19 -6 -42z m42 -56 c6 -18 -15 -14 -22 4 -4 10 -1 14 6 12 6
-2 14 -10 16 -16z"/>
<path d="M522 506 c-1 -39 31 -98 41 -76 3 6 4 5 3 -2 -2 -7 -13 -13 -25 -12
-29 1 -27 -13 4 -18 30 -6 47 29 23 46 -8 6 -18 24 -22 40 -6 24 -4 27 9 22 9
-3 13 -2 10 4 -3 6 -12 10 -20 10 -7 0 -15 6 -17 12 -3 7 -5 -5 -6 -26z"/>
<path d="M194 465 c-12 -8 -27 -28 -34 -45 -11 -28 -16 -30 -49 -25 l-36 5 33
-12 c17 -6 32 -14 32 -19 0 -4 -15 -10 -32 -12 l-33 -4 33 -1 c24 -2 32 -7 32
-20 0 -11 9 -27 20 -37 21 -19 27 -50 11 -60 -16 -9 -24 15 -11 30 7 9 8 15 2
15 -21 0 -23 -35 -3 -52 25 -20 26 -40 5 -73 -15 -23 -15 -25 0 -31 9 -3 24
-3 34 1 9 4 50 9 91 11 66 3 75 1 91 -19 15 -18 20 -19 34 -8 9 7 16 19 16 26
0 8 9 10 26 7 21 -4 24 -9 20 -27 -4 -14 0 -28 9 -35 26 -21 18 -40 -17 -40
-18 0 -40 -5 -48 -11 -11 -8 -6 -9 18 -4 25 5 39 2 55 -12 19 -16 20 -16 8 0
-7 9 -9 17 -3 17 14 0 21 37 9 49 -6 6 -11 22 -13 36 -2 19 2 25 19 27 12 0 0
4 -27 7 -44 5 -51 9 -57 34 -6 21 -3 29 11 37 14 7 20 6 24 -7 4 -9 9 -13 13
-10 3 4 0 13 -6 21 -8 10 -9 16 -1 21 16 10 12 23 -9 30 -18 5 -18 7 1 45 11
22 24 40 29 40 5 0 9 5 9 11 0 5 -4 7 -10 4 -5 -3 -15 -3 -21 1 -8 4 -3 12 12
21 l24 13 -25 -2 c-14 -2 -24 2 -23 8 1 6 -11 23 -27 39 -31 30 -62 28 -80 -6
-19 -34 -100 -16 -100 22 0 14 -33 11 -56 -6z m119 -45 c27 0 48 3 44 6 -3 4
4 15 16 24 16 14 25 15 35 7 22 -18 38 -60 41 -104 2 -38 -1 -44 -28 -61 -29
-18 -30 -19 -11 -35 17 -15 19 -14 22 3 2 15 7 17 18 10 13 -9 11 -14 -12 -33
-24 -20 -26 -27 -21 -69 5 -39 3 -48 -10 -48 -9 0 -19 4 -22 10 -4 6 1 7 12 4
17 -5 17 -5 1 8 -10 9 -15 23 -12 35 3 12 -4 31 -18 49 -13 16 -25 40 -26 55
-1 22 3 25 33 26 44 1 55 9 55 40 l0 26 -92 -8 c-51 -4 -99 -11 -105 -17 -9
-7 -13 -7 -13 0 0 6 8 16 18 21 13 8 9 10 -24 11 -29 0 -44 -5 -48 -16 -7 -18
10 -54 26 -54 7 0 7 4 -1 14 -9 10 -7 17 6 27 15 12 16 12 10 -4 -4 -12 -3
-16 4 -11 8 4 9 -1 4 -15 -9 -28 7 -27 45 5 27 23 35 25 56 16 13 -7 24 -16
24 -22 0 -13 -13 -13 -25 -1 -6 6 -17 5 -28 -4 -12 -8 -14 -15 -8 -20 18 -11
12 -35 -8 -35 -29 0 -63 -49 -56 -78 3 -13 1 -30 -6 -38 -14 -17 -42 -19 -36
-1 2 6 9 11 15 10 6 -1 8 20 7 53 -3 50 -2 54 16 49 29 -10 22 8 -11 27 -58
33 -58 107 -1 165 l25 24 19 -25 c16 -22 26 -26 70 -26z m65 -80 c-7 -11 -16
-16 -21 -11 -12 12 0 31 19 31 12 0 12 -3 2 -20z m-53 -70 c-9 -14 -25 5 -25
30 0 12 3 12 16 -2 9 -9 13 -21 9 -28z m14 -37 c12 -10 23 -31 24 -48 l2 -30
-61 -3 c-59 -3 -62 -2 -68 24 -5 20 -1 33 15 50 27 28 59 31 88 7z"/>
<path d="M516 311 c-18 -18 -26 -33 -21 -41 16 -27 13 -60 -6 -71 -11 -5 -24
-7 -29 -4 -6 3 -10 1 -10 -6 0 -13 103 -4 133 13 18 9 18 11 1 29 -12 14 -13
19 -4 19 7 0 11 3 8 6 -4 3 -16 1 -27 -6 -14 -7 -21 -7 -21 0 0 5 -7 10 -15
10 -21 0 -19 24 4 44 19 17 20 17 37 -8 9 -15 19 -25 21 -22 6 5 -29 66 -37
65 -3 0 -18 -13 -34 -28z m64 -91 c13 -9 13 -10 0 -10 -8 0 -26 -3 -39 -7 -22
-6 -23 -5 -10 10 16 19 28 21 49 7z"/>
<path d="M9 264 c-8 -53 -1 -64 42 -64 21 0 39 -5 39 -11 0 -5 -4 -7 -10 -4
-5 3 -10 1 -10 -4 0 -6 -8 -11 -18 -11 -10 0 -27 -7 -38 -16 -15 -12 -15 -14
-3 -11 10 3 36 11 58 18 29 9 40 17 36 27 -3 8 3 16 14 19 16 4 19 11 14 37
-3 17 -7 32 -8 33 -1 2 -27 6 -57 9 -55 6 -55 6 -59 -22z m41 -9 c0 -8 9 -19
20 -25 11 -6 20 -7 20 -1 0 5 -8 12 -17 15 -15 6 -15 8 -3 16 27 17 47 11 52
-15 4 -18 1 -25 -11 -26 -9 0 -33 -2 -53 -4 -39 -4 -45 4 -32 39 8 20 24 21
24 1z"/>
<path d="M122 130 c4 -28 1 -31 -34 -40 -27 -8 -38 -16 -38 -30 0 -10 -4 -22
-10 -25 -12 -8 -13 -35 -1 -35 10 0 24 38 22 58 -1 7 2 12 6 11 4 -1 23 4 41
11 27 10 33 17 28 33 -3 12 0 27 6 34 8 10 6 13 -7 13 -14 0 -16 -6 -13 -30z"/>
</g>
</svg>
